<?xml version="1.0" encoding="utf-8"?>
<!-- Generator: Adobe Illustrator 25.2.1, SVG Export Plug-In . SVG Version: 6.00 Build 0)  -->
<svg version="1.1" id="Layer_1" xmlns="http://www.w3.org/2000/svg" xmlns:xlink="http://www.w3.org/1999/xlink" x="0px" y="0px"
	 viewBox="0 0 1996.1 357" style="enable-background:new 0 0 1996.1 357;" xml:space="preserve">
<style type="text/css">
	.st0{fill:#4D4D4D;}
	.st1{fill:#3178C6;}
	.st2{fill-rule:evenodd;clip-rule:evenodd;fill:#FFFFFF;}
</style>
<path class="st0" d="M469.8,354c-17.7,0-35.3-0.5-52.8-1.6c-18.4-1.2-36.7-3.7-54.7-7.5V38.8c16.2-2.9,32.5-4.9,48.8-6.1
	c17.7-1.3,34.1-2,49.3-2c18.9-0.1,37.9,1.3,56.6,4.3c17.2,2.9,32,7.8,44.4,14.8c11.9,6.5,21.9,16,29.1,27.6
	c7,11.4,10.5,25.4,10.5,42.1c0,25.2-12.4,45.1-37.2,59.7c20.5,7.6,34.4,17.9,41.9,31c7.4,13.1,11.2,27.8,11.2,44.2
	c0,33.1-12.3,58-37,74.7S518.5,354,469.8,354z M433,158.1h35.4c22.3,0,38.3-2.8,47.9-8.4c9.6-5.6,14.4-14.7,14.4-27.1
	c0-12.7-5-21.7-14.9-26.9c-9.9-5.2-24.5-7.7-43.7-7.7c-6.2,0-12.9,0.1-20,0.2c-7.1,0.2-13.5,0.5-19.1,1.1V158.1z M433,212.3v81.5
	c5.3,0.6,11,1.1,17.2,1.4s13,0.4,20.5,0.5c21.7,0,39.2-3,52.6-9.1c13.3-6.1,20-17.3,20-33.7c0-14.6-5.6-25-16.8-31.2
	s-27.1-9.3-47.9-9.3L433,212.3L433,212.3z"/>
<path class="st0" d="M722.9,41.1c0,12.5-4.1,22.2-12.3,29.4c-8.1,6.9-18.4,10.7-29.1,10.7c-10.7,0-21-3.8-29.1-10.7
	c-8.2-7.1-12.3-16.9-12.3-29.4s4.1-22.2,12.3-29.4C660.5,4.8,670.8,1,681.5,1c10.7,0,21,3.8,29.1,10.7
	C718.8,18.8,722.9,28.6,722.9,41.1z M716.4,349.9h-69.3V110.3h69.3V349.9z"/>
<path class="st0" d="M756,50.6l69.3-10.9v70.6h83.3v56.5h-83.3V251c0,14.3,2.6,25.7,7.7,34.2s15.4,12.8,30.9,12.8
	c7.7,0,15.4-0.7,23-2c7.4-1.2,14.6-3.1,21.6-5.7l9.9,52.7c-9.1,3.6-18.4,6.4-27.9,8.6c-10.2,2.4-22.8,3.6-37.7,3.6
	c-18.9,0-34.6-2.5-47-7.5s-22.3-12-29.8-20.9s-12.6-19.8-15.6-32.6c-3.1-13.9-4.6-28.1-4.4-42.4V50.6z"/>
<path class="st0" d="M920.7,230.1c-0.1-16.7,2.8-33.3,8.6-49c5.5-14.9,13.9-28.6,24.9-40.1c11.2-11.6,24.7-20.8,39.5-27
	c15.5-6.7,33.2-10,53-10c12-0.1,24,1,35.8,3.4c10.8,2.3,21.4,5.6,31.6,9.8l-14.4,54.2c-7-2.6-14.1-4.7-21.4-6.4
	c-8.6-1.9-17.3-2.8-26.1-2.7c-20.5,0-35.8,6.2-45.8,18.7c-10.1,12.5-15.1,28.8-15.1,49.1c0,21.6,4.7,38.3,14.2,50.1
	s26,17.8,49.6,17.8c9-0.1,18.1-0.8,27-2.3c9.1-1.4,18-3.8,26.5-7.3l9.8,55.6c-8.1,3.3-18.2,6.2-30.2,8.6c-13.2,2.5-26.6,3.7-40,3.6
	c-22.3,0-41.6-3.3-57.7-9.8s-29.4-15.4-39.8-26.6c-10.5-11.4-18.3-25-22.8-39.9C923,263.8,920.5,247,920.7,230.1z"/>
<path class="st0" d="M1359,229.6c0,18.8-2.8,36.1-8.4,51.7c-5.1,14.9-13.4,28.6-24.2,40.1c-10.7,11.2-23.6,19.9-37.9,25.7
	c-14.7,6.1-31.3,9.1-49.6,9.1c-18,0-34.4-3-49.1-9.1c-14.3-5.8-27.3-14.6-37.9-25.7c-10.8-11.6-19.2-25.2-24.7-40.1
	c-5.9-15.6-8.8-32.9-8.8-51.7s3-36,9.1-51.5c5.6-14.8,14.1-28.3,25.1-39.6c10.8-11,23.8-19.7,38.2-25.5c15.3-6.2,31.7-9.3,48.2-9.1
	c17.7,0,33.9,3,48.6,9.1c14.3,5.8,27.2,14.5,37.9,25.5c10.8,11.4,19.2,24.9,24.7,39.6C1356.1,193.6,1359,210.8,1359,229.6z
	 M1288.3,229.6c0-20.9-4.3-37.4-12.8-49.4s-20.7-18-36.5-18s-28.1,6-36.8,18c-8.7,12-13,28.5-13,49.4c0,21,4.3,37.6,13,49.9
	s20.9,18.5,36.8,18.5c15.8,0,28-6.1,36.5-18.5C1284,267.2,1288.3,250.6,1288.3,229.6z"/>
<path class="st0" d="M1465.1,41.1c0,12.5-4.1,22.2-12.3,29.4c-8.1,6.9-18.4,10.7-29.1,10.7c-10.6,0-21-3.8-29.1-10.7
	c-8.2-7.1-12.3-16.9-12.3-29.4c0-12.4,4.1-22.2,12.3-29.4C1402.7,4.8,1413,1,1423.7,1s21,3.8,29.1,10.7
	C1461,18.8,1465.1,28.6,1465.1,41.1z M1458.6,349.9h-69.3V110.3h69.3V349.9z"/>
<path class="st0" d="M1500.5,118.5c11.8-3.3,27-6.4,45.6-9.3c19.4-2.9,39-4.4,58.6-4.3c20.8,0,38.1,2.7,51.9,8s24.8,12.9,32.8,22.6
	c8.3,10.1,14.1,21.9,17.2,34.6c3.6,14.6,5.3,29.6,5.1,44.6v135.2h-69.3V222.8c0-21.9-3-37.3-8.8-46.5c-5.9-9.1-16.9-13.7-33-13.7
	c-5,0-10.2,0.2-15.8,0.7s-10.6,1-14.9,1.6v184.9h-69.3L1500.5,118.5z"/>
<path class="st1" d="M1906.1,252c-9.4-17.9-18.9-38.9-28.6-63s-18.8-50.2-27.4-78.5h43.4c1.8,7,4,14.6,6.5,22.7
	c2.5,8.2,5.1,16.4,7.7,24.8c2.7,8.4,5.3,16.5,8,24.4s5.3,15.1,7.9,21.5c2.4-6.5,5-13.6,7.7-21.5c2.8-7.9,5.5-16,8.1-24.4
	c2.7-8.3,5.2-16.6,7.7-24.8s4.7-15.8,6.5-22.7h42.4c-8.7,28.4-17.8,54.5-27.4,78.6c-9.6,24-19.2,45-28.6,62.9H1906.1z"/>
<path class="st1" d="M1842.3,197.8c-1.4-4.6-3.9-8.7-7.2-12.2c-4-4.2-8.7-7.6-13.9-10.2c-7.2-3.7-14.6-7-22.3-9.6
	c-4.4-1.6-8-3.1-10.9-4.5c-2.3-1.1-4.6-2.3-6.7-3.8c-1.4-0.9-2.6-2.2-3.3-3.6c-0.6-1.4-0.9-2.8-0.8-4.3c0-7,6.4-10.5,19.2-10.5
	c6.3-0.1,12.6,0.6,18.8,1.9c5.2,1.2,10.4,2.6,15.5,4.3l7.2,2.7v-34c-6.3-2.2-12.7-3.9-19.2-5c-8.3-1.5-16.8-2.3-25.3-2.3
	c-17.6,0-31.4,3.9-41.5,11.6s-15.1,18.2-15.1,31.5c-0.2,6,0.9,11.9,3,17.5c1.9,4.7,4.8,9,8.5,12.5c3.9,3.7,8.4,6.7,13.3,9
	c5.2,2.5,11,4.9,17.5,7.3c8.2,3.1,14.4,5.8,18.4,8.2s6,5.2,6,8.5c0,4.1-1.6,6.9-4.7,8.4s-8.4,2.2-15.9,2.1c-7.3,0-14.6-0.8-21.7-2.3
	c-7.3-1.5-14.5-3.6-21.4-6.3v35c3,0.9,6.6,1.9,10.8,3c8.5,2.2,19.2,3.2,32,3.2c19.6,0,34.8-3.6,45.5-10.7
	c10.7-7.2,16.1-17.7,16.1-31.7C1844.4,208.1,1843.7,202.9,1842.3,197.8z"/>
<path class="st1" d="M31.5,31.3h259.2c17.3,0,31.4,14.1,31.4,31.5V322c0,17.4-14.1,31.5-31.5,31.5H31.5C14.1,353.4,0,339.3,0,321.9
	V62.7C0,45.3,14.1,31.3,31.5,31.3z"/>
<path class="st2" d="M199.4,287.6v31.5c5.1,2.6,11.2,4.6,18.1,5.9c6.9,1.3,14.3,2,22.1,2c7.6,0,14.7-0.7,21.5-2.2
	c6.8-1.4,12.7-3.8,17.9-7.1c5.1-3.3,9.2-7.7,12.2-13s4.5-12,4.5-19.8c0-5.7-0.8-10.7-2.5-15c-1.7-4.3-4.2-8.1-7.4-11.5
	c-3.2-3.3-7-6.3-11.5-9c-4.5-2.6-9.6-5.1-15.2-7.5c-4.2-1.7-7.8-3.3-11.1-5c-3.2-1.6-6-3.2-8.4-5c-2.3-1.7-4.1-3.4-5.3-5.3
	c-1.3-1.9-1.9-4-1.9-6.3c0-2.2,0.5-4.2,1.7-5.9c1.1-1.7,2.7-3.2,4.7-4.5c2.1-1.3,4.5-2.3,7.5-2.9c3-0.7,6.2-1,9.8-1
	c2.6,0,5.4,0.2,8.3,0.6c2.9,0.4,5.9,1,8.8,1.8s5.9,1.9,8.6,3.1c2.8,1.3,5.3,2.7,7.8,4.3v-29.4c-4.8-1.8-10-3.2-15.7-4.1
	c-5.7-0.9-12.2-1.4-19.6-1.4c-7.5,0-14.6,0.8-21.3,2.4s-12.5,4.2-17.7,7.5c-5.1,3.4-9.1,7.8-12.1,13.1c-3,5.3-4.4,11.6-4.4,18.9
	c0,9.4,2.7,17.4,8.1,24c5.4,6.6,13.6,12.3,24.6,16.9c4.3,1.8,8.4,3.5,12.1,5.2c3.7,1.7,6.9,3.5,9.7,5.3c2.7,1.8,4.9,3.9,6.4,6
	c1.5,2.2,2.3,4.6,2.3,7.4c0,2.1-0.5,3.9-1.4,5.7s-2.4,3.2-4.5,4.5c-2,1.3-4.5,2.3-7.5,3c-3,0.7-6.5,1.1-10.5,1.1
	c-6.9,0-13.6-1.2-20.3-3.6C211.3,296,205.1,292.4,199.4,287.6L199.4,287.6z M146.4,210h40.4v-25.8H74.3V210h40.2v115h32L146.4,210
	L146.4,210z"/>
</svg>
