<?xml version="1.0" encoding="utf-8"?>
<!-- Generator: Adobe Illustrator 25.2.1, SVG Export Plug-In . SVG Version: 6.00 Build 0)  -->
<svg version="1.1" id="Layer_1" xmlns="http://www.w3.org/2000/svg" xmlns:xlink="http://www.w3.org/1999/xlink" x="0px" y="0px"
	 viewBox="0 0 2033.7 453.4" style="enable-background:new 0 0 2033.7 453.4;" xml:space="preserve">
<style type="text/css">
	.st0{fill:#4D4D4D;}
	.st1{fill:#3178C6;}
	.st2{fill-rule:evenodd;clip-rule:evenodd;fill:#FFFFFF;}
</style>
<path class="st0" d="M507.4,450.4c-17.7,0-35.3-0.5-52.8-1.6c-18.4-1.2-36.7-3.7-54.7-7.5V135.2c16.2-2.9,32.5-4.9,48.8-6.1
	c17.7-1.3,34.1-2,49.3-2c18.9-0.1,37.9,1.3,56.6,4.3c17.2,2.9,32,7.8,44.4,14.8c11.9,6.5,21.9,16,29.1,27.6
	c7,11.4,10.5,25.4,10.5,42.1c0,25.2-12.4,45.1-37.2,59.7c20.5,7.6,34.4,17.9,41.9,31c7.4,13.1,11.2,27.8,11.2,44.2
	c0,33.1-12.3,58-37,74.7S556.1,450.4,507.4,450.4z M470.6,254.5H506c22.3,0,38.3-2.8,47.9-8.4c9.6-5.6,14.4-14.7,14.4-27.1
	c0-12.7-5-21.7-14.9-26.9s-24.5-7.7-43.7-7.7c-6.2,0-12.9,0.1-20,0.2c-7.1,0.2-13.5,0.5-19.1,1.1V254.5z M470.6,308.7v81.5
	c5.3,0.6,11,1.1,17.2,1.4s13,0.4,20.5,0.5c21.7,0,39.2-3,52.6-9.1c13.3-6.1,20-17.3,20-33.7c0-14.6-5.6-25-16.8-31.2
	c-11.2-6.2-27.1-9.3-47.9-9.3L470.6,308.7L470.6,308.7z"/>
<path class="st0" d="M760.5,137.5c0,12.5-4.1,22.2-12.3,29.4c-8.1,6.9-18.4,10.7-29.1,10.7c-10.7,0-21-3.8-29.1-10.7
	c-8.2-7.1-12.3-16.9-12.3-29.4s4.1-22.2,12.3-29.4c8.1-6.9,18.4-10.7,29.1-10.7c10.7,0,21,3.8,29.1,10.7
	C756.4,115.2,760.5,125,760.5,137.5z M754,446.3h-69.3V206.7H754V446.3z"/>
<path class="st0" d="M793.6,147l69.3-10.9v70.6h83.3v56.5h-83.3v84.2c0,14.3,2.6,25.7,7.7,34.2s15.4,12.8,30.9,12.8
	c7.7,0,15.4-0.7,23-2c7.4-1.2,14.6-3.1,21.6-5.7l9.9,52.7c-9.1,3.6-18.4,6.4-27.9,8.6c-10.2,2.4-22.8,3.6-37.7,3.6
	c-18.9,0-34.6-2.5-47-7.5s-22.3-12-29.8-20.9S801,403.4,798,390.6c-3.1-13.9-4.6-28.1-4.4-42.4V147z"/>
<path class="st0" d="M958.3,326.5c-0.1-16.7,2.8-33.3,8.6-49c5.5-14.9,13.9-28.6,24.9-40.1c11.2-11.6,24.7-20.8,39.5-27
	c15.5-6.7,33.2-10,53-10c12-0.1,24,1,35.8,3.4c10.8,2.3,21.4,5.6,31.6,9.8l-14.4,54.2c-7-2.6-14.1-4.7-21.4-6.4
	c-8.6-1.9-17.3-2.8-26.1-2.7c-20.5,0-35.8,6.2-45.8,18.7c-10.1,12.5-15.1,28.8-15.1,49.1c0,21.6,4.7,38.3,14.2,50.1
	s26,17.8,49.6,17.8c9-0.1,18.1-0.8,27-2.3c9.1-1.4,18-3.8,26.5-7.3l9.8,55.6c-8.1,3.3-18.2,6.2-30.2,8.6c-13.2,2.5-26.6,3.7-40,3.6
	c-22.3,0-41.6-3.3-57.7-9.8s-29.4-15.4-39.8-26.6c-10.5-11.4-18.3-25-22.8-39.9C960.6,360.2,958.1,343.4,958.3,326.5z"/>
<path class="st0" d="M1396.6,326c0,18.8-2.8,36.1-8.4,51.7c-5.1,14.9-13.4,28.6-24.2,40.1c-10.7,11.2-23.6,19.9-37.9,25.7
	c-14.7,6.1-31.3,9.1-49.6,9.1c-18,0-34.4-3-49.1-9.1c-14.3-5.8-27.3-14.6-37.9-25.7c-10.8-11.6-19.2-25.2-24.7-40.1
	c-5.9-15.6-8.8-32.9-8.8-51.7c0-18.8,3-36,9.1-51.5c5.6-14.8,14.1-28.3,25.1-39.6c10.8-11,23.8-19.7,38.2-25.5
	c15.3-6.2,31.7-9.3,48.2-9.1c17.7,0,33.9,3,48.6,9.1c14.3,5.8,27.2,14.5,37.9,25.5c10.8,11.4,19.2,24.9,24.7,39.6
	C1393.7,290,1396.6,307.2,1396.6,326z M1325.9,326c0-20.9-4.3-37.4-12.8-49.4s-20.7-18-36.5-18s-28.1,6-36.8,18
	c-8.7,12-13,28.5-13,49.4c0,21,4.3,37.6,13,49.9s20.9,18.5,36.8,18.5c15.8,0,28-6.1,36.5-18.5C1321.6,363.6,1325.9,347,1325.9,326z"
	/>
<path class="st0" d="M1502.7,137.5c0,12.5-4.1,22.2-12.3,29.4c-8.1,6.9-18.4,10.7-29.1,10.7c-10.6,0-21-3.8-29.1-10.7
	c-8.2-7.1-12.3-16.9-12.3-29.4c0-12.4,4.1-22.2,12.3-29.4c8.1-6.9,18.4-10.7,29.1-10.7s21,3.8,29.1,10.7
	C1498.6,115.2,1502.7,125,1502.7,137.5z M1496.2,446.3h-69.3V206.7h69.3V446.3z"/>
<path class="st0" d="M1538.1,214.9c11.8-3.3,27-6.4,45.6-9.3c19.4-2.9,39-4.4,58.6-4.3c20.8,0,38.1,2.7,51.9,8s24.8,12.9,32.8,22.6
	c8.3,10.1,14.1,21.9,17.2,34.6c3.6,14.6,5.3,29.6,5.1,44.6v135.2H1680V319.2c0-21.9-3-37.3-8.8-46.5c-5.9-9.1-16.9-13.7-33-13.7
	c-5,0-10.2,0.2-15.8,0.7s-10.6,1-14.9,1.6v184.9h-69.3L1538.1,214.9z"/>
<path class="st1" d="M1943.7,348.4c-9.4-17.9-18.9-38.9-28.6-63s-18.8-50.2-27.4-78.5h43.4c1.8,7,4,14.6,6.5,22.7
	c2.5,8.2,5.1,16.4,7.7,24.8c2.7,8.4,5.3,16.5,8,24.4s5.3,15.1,7.9,21.5c2.4-6.5,5-13.6,7.7-21.5c2.8-7.9,5.5-16,8.1-24.4
	c2.7-8.3,5.2-16.6,7.7-24.8s4.7-15.8,6.5-22.7h42.4c-8.7,28.4-17.8,54.5-27.4,78.6c-9.6,24-19.2,45-28.6,62.9H1943.7z"/>
<path class="st1" d="M1879.9,294.2c-1.4-4.6-3.9-8.7-7.2-12.2c-4-4.2-8.7-7.6-13.9-10.2c-7.2-3.7-14.6-7-22.3-9.6
	c-4.4-1.6-8-3.1-10.9-4.5c-2.3-1.1-4.6-2.3-6.7-3.8c-1.4-0.9-2.6-2.2-3.3-3.6c-0.6-1.4-0.9-2.8-0.8-4.3c0-7,6.4-10.5,19.2-10.5
	c6.3-0.1,12.6,0.6,18.8,1.9c5.2,1.2,10.4,2.6,15.5,4.3l7.2,2.7v-34c-6.3-2.2-12.7-3.9-19.2-5c-8.3-1.5-16.8-2.3-25.3-2.3
	c-17.6,0-31.4,3.9-41.5,11.6s-15.1,18.2-15.1,31.5c-0.2,6,0.9,11.9,3,17.5c1.9,4.7,4.8,9,8.5,12.5c3.9,3.7,8.4,6.7,13.3,9
	c5.2,2.5,11,4.9,17.5,7.3c8.2,3.1,14.4,5.8,18.4,8.2s6,5.2,6,8.5c0,4.1-1.6,6.9-4.7,8.4s-8.4,2.2-15.9,2.1c-7.3,0-14.6-0.8-21.7-2.3
	c-7.3-1.5-14.5-3.6-21.4-6.3v35c3,0.9,6.6,1.9,10.8,3c8.5,2.2,19.2,3.2,32,3.2c19.6,0,34.8-3.6,45.5-10.7
	c10.7-7.2,16.1-17.7,16.1-31.7C1882,304.5,1881.3,299.3,1879.9,294.2z"/>
<path class="st1" d="M34.9,96.4h287.3c19.2,0,34.8,15.6,34.8,34.9v287.3c0,19.3-15.6,34.9-34.9,34.9H34.9
	C15.6,453.4,0,437.8,0,418.5V131.3C0,112,15.6,96.4,34.9,96.4z"/>
<path class="st2" d="M221,380.5v34.9c5.7,2.9,12.4,5.1,20.1,6.5s15.9,2.2,24.5,2.2c8.4,0,16.3-0.8,23.8-2.4s14.1-4.2,19.8-7.9
	c5.7-3.7,10.2-8.5,13.5-14.4s5-13.3,5-22c0-6.3-0.9-11.9-2.8-16.6c-1.9-4.8-4.6-9-8.2-12.7c-3.6-3.7-7.8-7-12.8-10
	c-5-2.9-10.6-5.7-16.9-8.3c-4.6-1.9-8.7-3.7-12.3-5.5c-3.6-1.8-6.7-3.6-9.3-5.5c-2.5-1.9-4.5-3.8-5.9-5.9s-2.1-4.4-2.1-7
	c0-2.4,0.6-4.6,1.9-6.5c1.2-1.9,3-3.6,5.2-5c2.3-1.4,5-2.5,8.3-3.2c3.3-0.8,6.9-1.1,10.9-1.1c2.9,0,6,0.2,9.2,0.7
	c3.2,0.4,6.5,1.1,9.8,2s6.5,2.1,9.5,3.4c3.1,1.4,5.9,3,8.6,4.8v-32.6c-5.3-2-11.1-3.5-17.4-4.5s-13.5-1.5-21.7-1.5
	c-8.3,0-16.2,0.9-23.6,2.7c-7.4,1.8-13.9,4.6-19.6,8.3c-5.6,3.8-10.1,8.6-13.4,14.5c-3.3,5.9-4.9,12.9-4.9,21c0,10.4,3,19.3,9,26.6
	c6,7.3,15.1,13.6,27.3,18.7c4.8,2,9.3,3.9,13.4,5.8s7.7,3.9,10.7,5.9s5.4,4.3,7.1,6.7c1.7,2.4,2.6,5.1,2.6,8.2
	c0,2.3-0.5,4.3-1.6,6.3s-2.7,3.6-5,5c-2.2,1.4-5,2.5-8.3,3.3s-7.2,1.2-11.6,1.2c-7.6,0-15.1-1.3-22.5-4
	C234.2,389.8,227.3,385.8,221,380.5L221,380.5z M162.3,294.5h44.8v-28.6H82.3v28.6h44.6V422h35.5L162.3,294.5L162.3,294.5z"/>
</svg>
